<svg width="88" height="88" viewBox="0 0 88 88" fill="none" xmlns="http://www.w3.org/2000/svg"><defs><linearGradient id="g" x1="25" y1="18" x2="66" y2="75" gradientUnits="userSpaceOnUse"><stop stop-color="#FFE39A"/><stop offset=".48" stop-color="#D6A849"/><stop offset="1" stop-color="#8A5D18"/></linearGradient><filter id="s" x="8" y="8" width="72" height="72" filterUnits="userSpaceOnUse"><feGaussianBlur stdDeviation="6"/></filter></defs><circle cx="44" cy="44" r="30" fill="#C9993E" fill-opacity=".1"/><circle cx="44" cy="44" r="23" fill="#17171E" stroke="#4A3B22"/><path d="M28 62c4-4 6-10 6-18v-5c0-7 4-12 10-14 6 2 10 7 10 14v5c0 8 2 14 6 18H28Z" fill="url(#g)" fill-opacity=".16" stroke="url(#g)" stroke-width="2.4" stroke-linejoin="round"/><path d="M39 64c.7 3 2.4 4.5 5 4.5s4.3-1.5 5-4.5" stroke="#E0B85F" stroke-width="2.4" stroke-linecap="round"/><path d="M44 20v5" stroke="#F4D27E" stroke-width="2.4" stroke-linecap="round"/><circle cx="61" cy="28" r="3" fill="#EAC96E"/><path d="m23 29-4-4m50 18h5M20 48h-5" stroke="#886C34" stroke-width="1.8" stroke-linecap="round"/></svg>
